<mxfile host="app.diagrams.net" modified="2024-05-17T13:50:36.123Z" agent="Mozilla/5.0 (Windows NT 10.0; Win64; x64) AppleWebKit/537.36 (KHTML, like Gecko) Chrome/124.0.0.0 Safari/537.36" etag="L_1x5UINzykg2f32THhL" version="24.4.4" type="device">
  <diagram name="Page-1" id="0783ab3e-0a74-02c8-0abd-f7b4e66b4bec">
    <mxGraphModel dx="1118" dy="561" grid="1" gridSize="10" guides="1" tooltips="1" connect="1" arrows="1" fold="1" page="1" pageScale="1" pageWidth="850" pageHeight="1100" background="none" math="0" shadow="0">
      <root>
        <mxCell id="0" />
        <mxCell id="1" parent="0" />
        <mxCell id="1c1d494c118603dd-1" value="Cho thuê phòng" style="swimlane;html=1;childLayout=stackLayout;startSize=20;rounded=0;shadow=0;comic=0;labelBackgroundColor=none;strokeWidth=1;fontFamily=Verdana;fontSize=12;align=center;" parent="1" vertex="1">
          <mxGeometry x="40" y="19" width="670" height="990" as="geometry" />
        </mxCell>
        <mxCell id="1c1d494c118603dd-2" value="Chủ trọ" style="swimlane;html=1;startSize=20;" parent="1c1d494c118603dd-1" vertex="1">
          <mxGeometry y="20" width="250" height="970" as="geometry" />
        </mxCell>
        <mxCell id="1c1d494c118603dd-27" style="edgeStyle=orthogonalEdgeStyle;rounded=0;html=1;labelBackgroundColor=none;startArrow=none;startFill=0;startSize=5;endArrow=classicThin;endFill=1;endSize=5;jettySize=auto;orthogonalLoop=1;strokeWidth=1;fontFamily=Verdana;fontSize=12" parent="1c1d494c118603dd-2" source="60571a20871a0731-4" target="60571a20871a0731-8" edge="1">
          <mxGeometry relative="1" as="geometry" />
        </mxCell>
        <mxCell id="60571a20871a0731-4" value="" style="ellipse;whiteSpace=wrap;html=1;rounded=0;shadow=0;comic=0;labelBackgroundColor=none;strokeWidth=1;fillColor=#000000;fontFamily=Verdana;fontSize=12;align=center;" parent="1c1d494c118603dd-2" vertex="1">
          <mxGeometry x="90" y="30" width="40" height="40" as="geometry" />
        </mxCell>
        <mxCell id="60571a20871a0731-8" value="Danh sách phòng" style="rounded=1;whiteSpace=wrap;html=1;shadow=0;comic=0;labelBackgroundColor=none;strokeWidth=1;fontFamily=Verdana;fontSize=12;align=center;arcSize=50;" parent="1c1d494c118603dd-2" vertex="1">
          <mxGeometry x="49" y="100" width="120" height="30" as="geometry" />
        </mxCell>
        <mxCell id="xou5o9W6IZBxpLFCHj1X-3" value="Chọn phòng" style="rounded=1;whiteSpace=wrap;html=1;shadow=0;comic=0;labelBackgroundColor=none;strokeWidth=1;fontFamily=Verdana;fontSize=12;align=center;arcSize=50;" parent="1c1d494c118603dd-2" vertex="1">
          <mxGeometry x="49" y="157" width="120" height="30" as="geometry" />
        </mxCell>
        <mxCell id="xou5o9W6IZBxpLFCHj1X-16" value="Chọn tiếp tục" style="rounded=1;whiteSpace=wrap;html=1;shadow=0;comic=0;labelBackgroundColor=none;strokeWidth=1;fontFamily=Verdana;fontSize=12;align=center;arcSize=50;" parent="1c1d494c118603dd-2" vertex="1">
          <mxGeometry x="47" y="272" width="120" height="30" as="geometry" />
        </mxCell>
        <mxCell id="xou5o9W6IZBxpLFCHj1X-17" value="" style="endArrow=classic;html=1;rounded=0;exitX=0.5;exitY=1;exitDx=0;exitDy=0;entryX=-0.036;entryY=0.548;entryDx=0;entryDy=0;entryPerimeter=0;" parent="1c1d494c118603dd-2" target="xou5o9W6IZBxpLFCHj1X-18" edge="1">
          <mxGeometry width="50" height="50" relative="1" as="geometry">
            <mxPoint x="110" y="302" as="sourcePoint" />
            <mxPoint x="380" y="358" as="targetPoint" />
            <Array as="points">
              <mxPoint x="110" y="330" />
            </Array>
          </mxGeometry>
        </mxCell>
        <mxCell id="xou5o9W6IZBxpLFCHj1X-20" value="Nhập thông tin khách thuê" style="rounded=1;whiteSpace=wrap;html=1;shadow=0;comic=0;labelBackgroundColor=none;strokeWidth=1;fontFamily=Verdana;fontSize=12;align=center;arcSize=50;" parent="1c1d494c118603dd-2" vertex="1">
          <mxGeometry x="55" y="353" width="120" height="41" as="geometry" />
        </mxCell>
        <mxCell id="xou5o9W6IZBxpLFCHj1X-22" value="Chọn tiếp tục" style="rounded=1;whiteSpace=wrap;html=1;shadow=0;comic=0;labelBackgroundColor=none;strokeWidth=1;fontFamily=Verdana;fontSize=12;align=center;arcSize=50;" parent="1c1d494c118603dd-2" vertex="1">
          <mxGeometry x="55" y="464" width="120" height="30" as="geometry" />
        </mxCell>
        <mxCell id="xou5o9W6IZBxpLFCHj1X-26" value="Nhập thông tin hợp đồng" style="rounded=1;whiteSpace=wrap;html=1;shadow=0;comic=0;labelBackgroundColor=none;strokeWidth=1;fontFamily=Verdana;fontSize=12;align=center;arcSize=50;" parent="1c1d494c118603dd-2" vertex="1">
          <mxGeometry x="47" y="531" width="155" height="30" as="geometry" />
        </mxCell>
        <mxCell id="xou5o9W6IZBxpLFCHj1X-27" value="" style="endArrow=classic;html=1;rounded=0;exitX=0.429;exitY=0.999;exitDx=0;exitDy=0;exitPerimeter=0;entryX=0.5;entryY=0;entryDx=0;entryDy=0;" parent="1c1d494c118603dd-2" source="xou5o9W6IZBxpLFCHj1X-26" target="xou5o9W6IZBxpLFCHj1X-28" edge="1">
          <mxGeometry width="50" height="50" relative="1" as="geometry">
            <mxPoint x="114.44" y="571" as="sourcePoint" />
            <mxPoint x="114" y="641" as="targetPoint" />
          </mxGeometry>
        </mxCell>
        <mxCell id="xou5o9W6IZBxpLFCHj1X-28" value="" style="rhombus;whiteSpace=wrap;html=1;" parent="1c1d494c118603dd-2" vertex="1">
          <mxGeometry x="89.5" y="641" width="49" height="49" as="geometry" />
        </mxCell>
        <mxCell id="xou5o9W6IZBxpLFCHj1X-30" value="Xác nhận" style="text;html=1;align=center;verticalAlign=middle;whiteSpace=wrap;rounded=0;" parent="1c1d494c118603dd-2" vertex="1">
          <mxGeometry x="148" y="638" width="60" height="30" as="geometry" />
        </mxCell>
        <mxCell id="xou5o9W6IZBxpLFCHj1X-59" value="Hủy bỏ" style="text;html=1;align=center;verticalAlign=middle;whiteSpace=wrap;rounded=0;" parent="1c1d494c118603dd-2" vertex="1">
          <mxGeometry x="115" y="751" width="60" height="30" as="geometry" />
        </mxCell>
        <mxCell id="1c1d494c118603dd-4" value="Hệ thống" style="swimlane;html=1;startSize=20;" parent="1c1d494c118603dd-1" vertex="1">
          <mxGeometry x="250" y="20" width="420" height="970" as="geometry" />
        </mxCell>
        <mxCell id="xou5o9W6IZBxpLFCHj1X-1" value="Hiển thị danh sách phòng" style="rounded=1;whiteSpace=wrap;html=1;" parent="1c1d494c118603dd-4" vertex="1">
          <mxGeometry x="135" y="155" width="185" height="35" as="geometry" />
        </mxCell>
        <mxCell id="xou5o9W6IZBxpLFCHj1X-9" value="Thông tin chi tiết phòng" style="rounded=1;whiteSpace=wrap;html=1;" parent="1c1d494c118603dd-4" vertex="1">
          <mxGeometry x="134" y="225" width="185" height="35" as="geometry" />
        </mxCell>
        <mxCell id="xou5o9W6IZBxpLFCHj1X-18" value="Form nhập thông tin khách hàng" style="rounded=1;whiteSpace=wrap;html=1;" parent="1c1d494c118603dd-4" vertex="1">
          <mxGeometry x="140" y="310" width="185" height="35" as="geometry" />
        </mxCell>
        <mxCell id="xou5o9W6IZBxpLFCHj1X-19" value="" style="endArrow=classic;html=1;rounded=0;exitX=0.5;exitY=1;exitDx=0;exitDy=0;entryX=1.054;entryY=0.57;entryDx=0;entryDy=0;entryPerimeter=0;" parent="1c1d494c118603dd-4" edge="1">
          <mxGeometry width="50" height="50" relative="1" as="geometry">
            <mxPoint x="231" y="345" as="sourcePoint" />
            <mxPoint x="-73" y="374" as="targetPoint" />
            <Array as="points">
              <mxPoint x="231" y="375" />
            </Array>
          </mxGeometry>
        </mxCell>
        <mxCell id="xou5o9W6IZBxpLFCHj1X-24" value="Form nhập thông tin hợp đồng" style="rounded=1;whiteSpace=wrap;html=1;" parent="1c1d494c118603dd-4" vertex="1">
          <mxGeometry x="150" y="461" width="185" height="35" as="geometry" />
        </mxCell>
        <mxCell id="xou5o9W6IZBxpLFCHj1X-31" value="" style="rhombus;whiteSpace=wrap;html=1;" parent="1c1d494c118603dd-4" vertex="1">
          <mxGeometry x="190" y="641" width="49" height="49" as="geometry" />
        </mxCell>
        <mxCell id="xou5o9W6IZBxpLFCHj1X-32" value="Kiểm tra dữ liệu" style="text;html=1;align=center;verticalAlign=middle;whiteSpace=wrap;rounded=0;" parent="1c1d494c118603dd-4" vertex="1">
          <mxGeometry x="90" y="631" width="90" height="30" as="geometry" />
        </mxCell>
        <mxCell id="xou5o9W6IZBxpLFCHj1X-33" value="Thông báo lỗi" style="rounded=1;whiteSpace=wrap;html=1;" parent="1c1d494c118603dd-4" vertex="1">
          <mxGeometry x="279" y="561" width="125" height="35" as="geometry" />
        </mxCell>
        <mxCell id="xou5o9W6IZBxpLFCHj1X-34" value="" style="endArrow=classic;html=1;rounded=0;exitX=1;exitY=0.5;exitDx=0;exitDy=0;entryX=0.872;entryY=0.984;entryDx=0;entryDy=0;entryPerimeter=0;" parent="1c1d494c118603dd-4" source="xou5o9W6IZBxpLFCHj1X-31" target="xou5o9W6IZBxpLFCHj1X-33" edge="1">
          <mxGeometry width="50" height="50" relative="1" as="geometry">
            <mxPoint x="282" y="665.5" as="sourcePoint" />
            <mxPoint x="341.5" y="596.0000000000001" as="targetPoint" />
            <Array as="points">
              <mxPoint x="388" y="666" />
            </Array>
          </mxGeometry>
        </mxCell>
        <mxCell id="xou5o9W6IZBxpLFCHj1X-35" value="Không hợp lệ" style="text;html=1;align=center;verticalAlign=middle;whiteSpace=wrap;rounded=0;" parent="1c1d494c118603dd-4" vertex="1">
          <mxGeometry x="286" y="635" width="91" height="30" as="geometry" />
        </mxCell>
        <mxCell id="xou5o9W6IZBxpLFCHj1X-36" value="" style="endArrow=classic;html=1;rounded=0;exitX=0.878;exitY=0.018;exitDx=0;exitDy=0;entryX=1;entryY=0.5;entryDx=0;entryDy=0;exitPerimeter=0;" parent="1c1d494c118603dd-4" source="xou5o9W6IZBxpLFCHj1X-33" target="xou5o9W6IZBxpLFCHj1X-24" edge="1">
          <mxGeometry width="50" height="50" relative="1" as="geometry">
            <mxPoint x="-90" y="691" as="sourcePoint" />
            <mxPoint x="-40" y="641" as="targetPoint" />
            <Array as="points">
              <mxPoint x="390" y="478" />
            </Array>
          </mxGeometry>
        </mxCell>
        <mxCell id="xou5o9W6IZBxpLFCHj1X-37" value="Hiển thị thông báo" style="rounded=1;whiteSpace=wrap;html=1;" parent="1c1d494c118603dd-4" vertex="1">
          <mxGeometry x="153" y="754" width="125" height="35" as="geometry" />
        </mxCell>
        <mxCell id="xou5o9W6IZBxpLFCHj1X-38" value="Chuyển màn hình danh sách" style="rounded=1;whiteSpace=wrap;html=1;" parent="1c1d494c118603dd-4" vertex="1">
          <mxGeometry x="153" y="831" width="125" height="35" as="geometry" />
        </mxCell>
        <mxCell id="xou5o9W6IZBxpLFCHj1X-39" value="" style="endArrow=classic;html=1;rounded=0;exitX=0.5;exitY=1;exitDx=0;exitDy=0;entryX=0.5;entryY=0;entryDx=0;entryDy=0;" parent="1c1d494c118603dd-4" source="xou5o9W6IZBxpLFCHj1X-31" target="xou5o9W6IZBxpLFCHj1X-37" edge="1">
          <mxGeometry width="50" height="50" relative="1" as="geometry">
            <mxPoint x="-127" y="571" as="sourcePoint" />
            <mxPoint x="-126" y="651" as="targetPoint" />
          </mxGeometry>
        </mxCell>
        <mxCell id="xou5o9W6IZBxpLFCHj1X-55" value="" style="endArrow=classic;html=1;rounded=0;exitX=0.5;exitY=1;exitDx=0;exitDy=0;" parent="1c1d494c118603dd-4" source="xou5o9W6IZBxpLFCHj1X-37" target="xou5o9W6IZBxpLFCHj1X-38" edge="1">
          <mxGeometry width="50" height="50" relative="1" as="geometry">
            <mxPoint x="225" y="700" as="sourcePoint" />
            <mxPoint x="226" y="764" as="targetPoint" />
          </mxGeometry>
        </mxCell>
        <mxCell id="xou5o9W6IZBxpLFCHj1X-57" value="" style="ellipse;html=1;shape=endState;fillColor=#000000;strokeColor=#ff0000;" parent="1c1d494c118603dd-4" vertex="1">
          <mxGeometry x="201" y="922" width="30" height="30" as="geometry" />
        </mxCell>
        <mxCell id="1c1d494c118603dd-28" style="rounded=0;html=1;labelBackgroundColor=none;startArrow=none;startFill=0;startSize=5;endArrow=classicThin;endFill=1;endSize=5;jettySize=auto;orthogonalLoop=1;strokeWidth=1;fontFamily=Verdana;fontSize=12;edgeStyle=orthogonalEdgeStyle;entryX=0.5;entryY=0;entryDx=0;entryDy=0;" parent="1c1d494c118603dd-1" source="60571a20871a0731-8" target="xou5o9W6IZBxpLFCHj1X-1" edge="1">
          <mxGeometry relative="1" as="geometry">
            <mxPoint x="500" y="190" as="targetPoint" />
          </mxGeometry>
        </mxCell>
        <mxCell id="xou5o9W6IZBxpLFCHj1X-10" value="" style="endArrow=classic;html=1;rounded=0;exitX=0.5;exitY=1;exitDx=0;exitDy=0;entryX=-0.025;entryY=0.504;entryDx=0;entryDy=0;entryPerimeter=0;" parent="1c1d494c118603dd-1" source="xou5o9W6IZBxpLFCHj1X-3" target="xou5o9W6IZBxpLFCHj1X-9" edge="1">
          <mxGeometry width="50" height="50" relative="1" as="geometry">
            <mxPoint x="250" y="280" as="sourcePoint" />
            <mxPoint x="300" y="230" as="targetPoint" />
            <Array as="points">
              <mxPoint x="109" y="263" />
            </Array>
          </mxGeometry>
        </mxCell>
        <mxCell id="xou5o9W6IZBxpLFCHj1X-15" value="" style="endArrow=classic;html=1;rounded=0;entryX=1.054;entryY=0.57;entryDx=0;entryDy=0;entryPerimeter=0;" parent="1c1d494c118603dd-1" target="xou5o9W6IZBxpLFCHj1X-16" edge="1">
          <mxGeometry width="50" height="50" relative="1" as="geometry">
            <mxPoint x="480" y="280" as="sourcePoint" />
            <mxPoint x="160" y="310" as="targetPoint" />
            <Array as="points">
              <mxPoint x="480" y="310" />
            </Array>
          </mxGeometry>
        </mxCell>
        <mxCell id="xou5o9W6IZBxpLFCHj1X-23" value="" style="endArrow=classic;html=1;rounded=0;exitX=1;exitY=0.5;exitDx=0;exitDy=0;" parent="1c1d494c118603dd-1" source="xou5o9W6IZBxpLFCHj1X-22" target="xou5o9W6IZBxpLFCHj1X-24" edge="1">
          <mxGeometry width="50" height="50" relative="1" as="geometry">
            <mxPoint x="175" y="501" as="sourcePoint" />
            <mxPoint x="380" y="493" as="targetPoint" />
            <Array as="points" />
          </mxGeometry>
        </mxCell>
        <mxCell id="xou5o9W6IZBxpLFCHj1X-25" value="" style="endArrow=classic;html=1;rounded=0;exitX=0.5;exitY=1;exitDx=0;exitDy=0;entryX=1;entryY=0.5;entryDx=0;entryDy=0;" parent="1c1d494c118603dd-1" source="xou5o9W6IZBxpLFCHj1X-24" target="xou5o9W6IZBxpLFCHj1X-26" edge="1">
          <mxGeometry width="50" height="50" relative="1" as="geometry">
            <mxPoint x="491" y="375" as="sourcePoint" />
            <mxPoint x="187" y="404" as="targetPoint" />
            <Array as="points">
              <mxPoint x="493" y="566" />
            </Array>
          </mxGeometry>
        </mxCell>
        <mxCell id="xou5o9W6IZBxpLFCHj1X-29" value="" style="endArrow=classic;html=1;rounded=0;exitX=1;exitY=0.5;exitDx=0;exitDy=0;entryX=0;entryY=0.5;entryDx=0;entryDy=0;" parent="1c1d494c118603dd-1" source="xou5o9W6IZBxpLFCHj1X-28" target="xou5o9W6IZBxpLFCHj1X-31" edge="1">
          <mxGeometry width="50" height="50" relative="1" as="geometry">
            <mxPoint x="170" y="711" as="sourcePoint" />
            <mxPoint x="480" y="686" as="targetPoint" />
          </mxGeometry>
        </mxCell>
        <mxCell id="xou5o9W6IZBxpLFCHj1X-58" value="" style="endArrow=classic;html=1;rounded=0;exitX=0.5;exitY=1;exitDx=0;exitDy=0;entryX=0;entryY=0.5;entryDx=0;entryDy=0;" parent="1c1d494c118603dd-1" source="xou5o9W6IZBxpLFCHj1X-28" target="xou5o9W6IZBxpLFCHj1X-57" edge="1">
          <mxGeometry width="50" height="50" relative="1" as="geometry">
            <mxPoint x="149" y="696" as="sourcePoint" />
            <mxPoint x="450" y="696" as="targetPoint" />
            <Array as="points">
              <mxPoint x="114" y="957" />
            </Array>
          </mxGeometry>
        </mxCell>
        <mxCell id="xou5o9W6IZBxpLFCHj1X-2" value="" style="endArrow=classic;html=1;rounded=0;exitX=0;exitY=0.5;exitDx=0;exitDy=0;" parent="1" source="xou5o9W6IZBxpLFCHj1X-1" edge="1">
          <mxGeometry width="50" height="50" relative="1" as="geometry">
            <mxPoint x="330" y="310" as="sourcePoint" />
            <mxPoint x="210" y="213" as="targetPoint" />
          </mxGeometry>
        </mxCell>
        <mxCell id="xou5o9W6IZBxpLFCHj1X-21" value="" style="endArrow=classic;html=1;rounded=0;exitX=0.5;exitY=1;exitDx=0;exitDy=0;" parent="1" source="xou5o9W6IZBxpLFCHj1X-20" edge="1">
          <mxGeometry width="50" height="50" relative="1" as="geometry">
            <mxPoint x="320" y="400" as="sourcePoint" />
            <mxPoint x="155" y="500" as="targetPoint" />
          </mxGeometry>
        </mxCell>
        <mxCell id="xou5o9W6IZBxpLFCHj1X-56" value="" style="endArrow=classic;html=1;rounded=0;exitX=0.5;exitY=1;exitDx=0;exitDy=0;" parent="1" source="xou5o9W6IZBxpLFCHj1X-38" edge="1">
          <mxGeometry width="50" height="50" relative="1" as="geometry">
            <mxPoint x="516" y="838" as="sourcePoint" />
            <mxPoint x="506" y="960" as="targetPoint" />
          </mxGeometry>
        </mxCell>
      </root>
    </mxGraphModel>
  </diagram>
</mxfile>
